<mxfile host="app.diagrams.net" modified="2024-01-21T08:37:49.688Z" agent="Mozilla/5.0 (Windows NT 10.0; Win64; x64) AppleWebKit/537.36 (KHTML, like Gecko) Chrome/119.0.0.0 Safari/537.36" etag="lXBDrXgZijEZLlXqp8Xr" version="22.1.21" type="github">
  <diagram name="第 1 页" id="JUSpbG70qu2i8Q2lVNH5">
    <mxGraphModel dx="1050" dy="625" grid="0" gridSize="10" guides="1" tooltips="1" connect="1" arrows="1" fold="1" page="1" pageScale="1" pageWidth="2336" pageHeight="1654" math="0" shadow="0">
      <root>
        <mxCell id="0" />
        <mxCell id="1" parent="0" />
        <mxCell id="0kJ84W1fS4hGcbfnPI8M-1" value="" style="shape=table;startSize=0;container=1;collapsible=0;childLayout=tableLayout;fontFamily=Comic Sans MS;" vertex="1" parent="1">
          <mxGeometry x="190" y="180" width="150" height="80" as="geometry" />
        </mxCell>
        <mxCell id="0kJ84W1fS4hGcbfnPI8M-2" value="" style="shape=tableRow;horizontal=0;startSize=0;swimlaneHead=0;swimlaneBody=0;strokeColor=inherit;top=0;left=0;bottom=0;right=0;collapsible=0;dropTarget=0;fillColor=none;points=[[0,0.5],[1,0.5]];portConstraint=eastwest;fontFamily=Comic Sans MS;" vertex="1" parent="0kJ84W1fS4hGcbfnPI8M-1">
          <mxGeometry width="150" height="40" as="geometry" />
        </mxCell>
        <mxCell id="0kJ84W1fS4hGcbfnPI8M-3" value="const char *" style="shape=partialRectangle;html=1;whiteSpace=wrap;connectable=0;strokeColor=#6c8ebf;overflow=hidden;fillColor=#dae8fc;top=0;left=0;bottom=0;right=0;pointerEvents=1;fontFamily=Comic Sans MS;" vertex="1" parent="0kJ84W1fS4hGcbfnPI8M-2">
          <mxGeometry width="80" height="40" as="geometry">
            <mxRectangle width="80" height="40" as="alternateBounds" />
          </mxGeometry>
        </mxCell>
        <mxCell id="0kJ84W1fS4hGcbfnPI8M-6" value="tag_name" style="shape=partialRectangle;html=1;whiteSpace=wrap;connectable=0;strokeColor=#6c8ebf;overflow=hidden;fillColor=#dae8fc;top=0;left=0;bottom=0;right=0;pointerEvents=1;fontFamily=Comic Sans MS;" vertex="1" parent="0kJ84W1fS4hGcbfnPI8M-2">
          <mxGeometry x="80" width="70" height="40" as="geometry">
            <mxRectangle width="70" height="40" as="alternateBounds" />
          </mxGeometry>
        </mxCell>
        <mxCell id="0kJ84W1fS4hGcbfnPI8M-4" value="" style="shape=tableRow;horizontal=0;startSize=0;swimlaneHead=0;swimlaneBody=0;strokeColor=inherit;top=0;left=0;bottom=0;right=0;collapsible=0;dropTarget=0;fillColor=none;points=[[0,0.5],[1,0.5]];portConstraint=eastwest;fontFamily=Comic Sans MS;" vertex="1" parent="0kJ84W1fS4hGcbfnPI8M-1">
          <mxGeometry y="40" width="150" height="40" as="geometry" />
        </mxCell>
        <mxCell id="0kJ84W1fS4hGcbfnPI8M-5" value="uint8_t" style="shape=partialRectangle;html=1;whiteSpace=wrap;connectable=0;strokeColor=#82b366;overflow=hidden;fillColor=#d5e8d4;top=0;left=0;bottom=0;right=0;pointerEvents=1;fontFamily=Comic Sans MS;" vertex="1" parent="0kJ84W1fS4hGcbfnPI8M-4">
          <mxGeometry width="80" height="40" as="geometry">
            <mxRectangle width="80" height="40" as="alternateBounds" />
          </mxGeometry>
        </mxCell>
        <mxCell id="0kJ84W1fS4hGcbfnPI8M-7" value="tag_type" style="shape=partialRectangle;html=1;whiteSpace=wrap;connectable=0;strokeColor=#82b366;overflow=hidden;fillColor=#d5e8d4;top=0;left=0;bottom=0;right=0;pointerEvents=1;fontFamily=Comic Sans MS;" vertex="1" parent="0kJ84W1fS4hGcbfnPI8M-4">
          <mxGeometry x="80" width="70" height="40" as="geometry">
            <mxRectangle width="70" height="40" as="alternateBounds" />
          </mxGeometry>
        </mxCell>
        <mxCell id="0kJ84W1fS4hGcbfnPI8M-8" value="&lt;font style=&quot;font-size: 16px;&quot;&gt;struct tag_info&lt;/font&gt;" style="rounded=1;whiteSpace=wrap;html=1;fillColor=none;strokeColor=none;fontFamily=Comic Sans MS;" vertex="1" parent="1">
          <mxGeometry x="200" y="120" width="120" height="60" as="geometry" />
        </mxCell>
        <mxCell id="0kJ84W1fS4hGcbfnPI8M-9" value="&lt;font style=&quot;font-size: 16px;&quot;&gt;tag_info android_color_correction[5]&lt;/font&gt;" style="rounded=1;whiteSpace=wrap;html=1;fillColor=none;strokeColor=none;fontFamily=Comic Sans MS;" vertex="1" parent="1">
          <mxGeometry x="380" y="120" width="335" height="60" as="geometry" />
        </mxCell>
        <mxCell id="0kJ84W1fS4hGcbfnPI8M-10" value="" style="shape=table;startSize=0;container=1;collapsible=0;childLayout=tableLayout;fontFamily=Comic Sans MS;" vertex="1" parent="1">
          <mxGeometry x="400" y="180" width="290" height="200" as="geometry" />
        </mxCell>
        <mxCell id="0kJ84W1fS4hGcbfnPI8M-11" value="" style="shape=tableRow;horizontal=0;startSize=0;swimlaneHead=0;swimlaneBody=0;strokeColor=inherit;top=0;left=0;bottom=0;right=0;collapsible=0;dropTarget=0;fillColor=none;points=[[0,0.5],[1,0.5]];portConstraint=eastwest;fontFamily=Comic Sans MS;" vertex="1" parent="0kJ84W1fS4hGcbfnPI8M-10">
          <mxGeometry width="290" height="40" as="geometry" />
        </mxCell>
        <mxCell id="0kJ84W1fS4hGcbfnPI8M-12" value="&quot;mode&quot;" style="shape=partialRectangle;html=1;whiteSpace=wrap;connectable=0;strokeColor=#6c8ebf;overflow=hidden;fillColor=#dae8fc;top=0;left=0;bottom=0;right=0;pointerEvents=1;fontFamily=Comic Sans MS;" vertex="1" parent="0kJ84W1fS4hGcbfnPI8M-11">
          <mxGeometry width="170" height="40" as="geometry">
            <mxRectangle width="170" height="40" as="alternateBounds" />
          </mxGeometry>
        </mxCell>
        <mxCell id="0kJ84W1fS4hGcbfnPI8M-13" value="TYPE_BYTE" style="shape=partialRectangle;html=1;whiteSpace=wrap;connectable=0;strokeColor=#82b366;overflow=hidden;fillColor=#d5e8d4;top=0;left=0;bottom=0;right=0;pointerEvents=1;fontFamily=Comic Sans MS;" vertex="1" parent="0kJ84W1fS4hGcbfnPI8M-11">
          <mxGeometry x="170" width="120" height="40" as="geometry">
            <mxRectangle width="120" height="40" as="alternateBounds" />
          </mxGeometry>
        </mxCell>
        <mxCell id="0kJ84W1fS4hGcbfnPI8M-14" value="" style="shape=tableRow;horizontal=0;startSize=0;swimlaneHead=0;swimlaneBody=0;strokeColor=inherit;top=0;left=0;bottom=0;right=0;collapsible=0;dropTarget=0;fillColor=none;points=[[0,0.5],[1,0.5]];portConstraint=eastwest;fontFamily=Comic Sans MS;" vertex="1" parent="0kJ84W1fS4hGcbfnPI8M-10">
          <mxGeometry y="40" width="290" height="40" as="geometry" />
        </mxCell>
        <mxCell id="0kJ84W1fS4hGcbfnPI8M-15" value="&quot;transform&quot;" style="shape=partialRectangle;html=1;whiteSpace=wrap;connectable=0;strokeColor=#6c8ebf;overflow=hidden;fillColor=#dae8fc;top=0;left=0;bottom=0;right=0;pointerEvents=1;fontFamily=Comic Sans MS;" vertex="1" parent="0kJ84W1fS4hGcbfnPI8M-14">
          <mxGeometry width="170" height="40" as="geometry">
            <mxRectangle width="170" height="40" as="alternateBounds" />
          </mxGeometry>
        </mxCell>
        <mxCell id="0kJ84W1fS4hGcbfnPI8M-16" value="TYPE_RATIONAL" style="shape=partialRectangle;html=1;whiteSpace=wrap;connectable=0;strokeColor=#82b366;overflow=hidden;fillColor=#d5e8d4;top=0;left=0;bottom=0;right=0;pointerEvents=1;fontFamily=Comic Sans MS;" vertex="1" parent="0kJ84W1fS4hGcbfnPI8M-14">
          <mxGeometry x="170" width="120" height="40" as="geometry">
            <mxRectangle width="120" height="40" as="alternateBounds" />
          </mxGeometry>
        </mxCell>
        <mxCell id="0kJ84W1fS4hGcbfnPI8M-17" value="" style="shape=tableRow;horizontal=0;startSize=0;swimlaneHead=0;swimlaneBody=0;strokeColor=inherit;top=0;left=0;bottom=0;right=0;collapsible=0;dropTarget=0;fillColor=none;points=[[0,0.5],[1,0.5]];portConstraint=eastwest;fontFamily=Comic Sans MS;" vertex="1" parent="0kJ84W1fS4hGcbfnPI8M-10">
          <mxGeometry y="80" width="290" height="40" as="geometry" />
        </mxCell>
        <mxCell id="0kJ84W1fS4hGcbfnPI8M-18" value="&quot;gains&quot;" style="shape=partialRectangle;html=1;whiteSpace=wrap;connectable=0;strokeColor=#6c8ebf;overflow=hidden;fillColor=#dae8fc;top=0;left=0;bottom=0;right=0;pointerEvents=1;fontFamily=Comic Sans MS;" vertex="1" parent="0kJ84W1fS4hGcbfnPI8M-17">
          <mxGeometry width="170" height="40" as="geometry">
            <mxRectangle width="170" height="40" as="alternateBounds" />
          </mxGeometry>
        </mxCell>
        <mxCell id="0kJ84W1fS4hGcbfnPI8M-19" value="TYPE_FLOAT" style="shape=partialRectangle;html=1;whiteSpace=wrap;connectable=0;strokeColor=#82b366;overflow=hidden;fillColor=#d5e8d4;top=0;left=0;bottom=0;right=0;pointerEvents=1;fontFamily=Comic Sans MS;" vertex="1" parent="0kJ84W1fS4hGcbfnPI8M-17">
          <mxGeometry x="170" width="120" height="40" as="geometry">
            <mxRectangle width="120" height="40" as="alternateBounds" />
          </mxGeometry>
        </mxCell>
        <mxCell id="0kJ84W1fS4hGcbfnPI8M-20" value="" style="shape=tableRow;horizontal=0;startSize=0;swimlaneHead=0;swimlaneBody=0;strokeColor=inherit;top=0;left=0;bottom=0;right=0;collapsible=0;dropTarget=0;fillColor=none;points=[[0,0.5],[1,0.5]];portConstraint=eastwest;fontFamily=Comic Sans MS;" vertex="1" parent="0kJ84W1fS4hGcbfnPI8M-10">
          <mxGeometry y="120" width="290" height="40" as="geometry" />
        </mxCell>
        <mxCell id="0kJ84W1fS4hGcbfnPI8M-21" value="&quot;aberrationMode&quot;" style="shape=partialRectangle;html=1;whiteSpace=wrap;connectable=0;strokeColor=#6c8ebf;overflow=hidden;fillColor=#dae8fc;top=0;left=0;bottom=0;right=0;pointerEvents=1;fontFamily=Comic Sans MS;" vertex="1" parent="0kJ84W1fS4hGcbfnPI8M-20">
          <mxGeometry width="170" height="40" as="geometry">
            <mxRectangle width="170" height="40" as="alternateBounds" />
          </mxGeometry>
        </mxCell>
        <mxCell id="0kJ84W1fS4hGcbfnPI8M-22" value="TYPE_BYTE" style="shape=partialRectangle;html=1;whiteSpace=wrap;connectable=0;strokeColor=#82b366;overflow=hidden;fillColor=#d5e8d4;top=0;left=0;bottom=0;right=0;pointerEvents=1;fontFamily=Comic Sans MS;" vertex="1" parent="0kJ84W1fS4hGcbfnPI8M-20">
          <mxGeometry x="170" width="120" height="40" as="geometry">
            <mxRectangle width="120" height="40" as="alternateBounds" />
          </mxGeometry>
        </mxCell>
        <mxCell id="0kJ84W1fS4hGcbfnPI8M-23" value="" style="shape=tableRow;horizontal=0;startSize=0;swimlaneHead=0;swimlaneBody=0;strokeColor=inherit;top=0;left=0;bottom=0;right=0;collapsible=0;dropTarget=0;fillColor=none;points=[[0,0.5],[1,0.5]];portConstraint=eastwest;fontFamily=Comic Sans MS;" vertex="1" parent="0kJ84W1fS4hGcbfnPI8M-10">
          <mxGeometry y="160" width="290" height="40" as="geometry" />
        </mxCell>
        <mxCell id="0kJ84W1fS4hGcbfnPI8M-24" value="&quot;availableAberrationModes&quot;" style="shape=partialRectangle;html=1;whiteSpace=wrap;connectable=0;strokeColor=#6c8ebf;overflow=hidden;fillColor=#dae8fc;top=0;left=0;bottom=0;right=0;pointerEvents=1;fontFamily=Comic Sans MS;" vertex="1" parent="0kJ84W1fS4hGcbfnPI8M-23">
          <mxGeometry width="170" height="40" as="geometry">
            <mxRectangle width="170" height="40" as="alternateBounds" />
          </mxGeometry>
        </mxCell>
        <mxCell id="0kJ84W1fS4hGcbfnPI8M-25" value="TYPE_BYTE" style="shape=partialRectangle;html=1;whiteSpace=wrap;connectable=0;strokeColor=#82b366;overflow=hidden;fillColor=#d5e8d4;top=0;left=0;bottom=0;right=0;pointerEvents=1;fontFamily=Comic Sans MS;" vertex="1" parent="0kJ84W1fS4hGcbfnPI8M-23">
          <mxGeometry x="170" width="120" height="40" as="geometry">
            <mxRectangle width="120" height="40" as="alternateBounds" />
          </mxGeometry>
        </mxCell>
        <mxCell id="0kJ84W1fS4hGcbfnPI8M-26" value="&lt;font style=&quot;font-size: 16px;&quot; face=&quot;Comic Sans MS&quot;&gt;&amp;nbsp;struct camera_metadata_buffer_entry&lt;/font&gt;" style="rounded=1;whiteSpace=wrap;html=1;fillColor=none;strokeColor=none;" vertex="1" parent="1">
          <mxGeometry x="230" y="900" width="440" height="60" as="geometry" />
        </mxCell>
        <mxCell id="0kJ84W1fS4hGcbfnPI8M-27" value="" style="shape=table;startSize=0;container=1;collapsible=0;childLayout=tableLayout;fontFamily=Comic Sans MS;" vertex="1" parent="1">
          <mxGeometry x="370" y="950" width="160" height="280" as="geometry" />
        </mxCell>
        <mxCell id="0kJ84W1fS4hGcbfnPI8M-28" value="" style="shape=tableRow;horizontal=0;startSize=0;swimlaneHead=0;swimlaneBody=0;strokeColor=inherit;top=0;left=0;bottom=0;right=0;collapsible=0;dropTarget=0;fillColor=none;points=[[0,0.5],[1,0.5]];portConstraint=eastwest;fontFamily=Comic Sans MS;" vertex="1" parent="0kJ84W1fS4hGcbfnPI8M-27">
          <mxGeometry width="160" height="40" as="geometry" />
        </mxCell>
        <mxCell id="0kJ84W1fS4hGcbfnPI8M-29" value="uint32_t" style="shape=partialRectangle;html=1;whiteSpace=wrap;connectable=0;strokeColor=#666666;overflow=hidden;fillColor=#f5f5f5;top=0;left=0;bottom=0;right=0;pointerEvents=1;fontFamily=Comic Sans MS;fontColor=#333333;" vertex="1" parent="0kJ84W1fS4hGcbfnPI8M-28">
          <mxGeometry width="80" height="40" as="geometry">
            <mxRectangle width="80" height="40" as="alternateBounds" />
          </mxGeometry>
        </mxCell>
        <mxCell id="0kJ84W1fS4hGcbfnPI8M-30" value="tag" style="shape=partialRectangle;html=1;whiteSpace=wrap;connectable=0;strokeColor=#666666;overflow=hidden;fillColor=#f5f5f5;top=0;left=0;bottom=0;right=0;pointerEvents=1;fontFamily=Comic Sans MS;fontColor=#333333;" vertex="1" parent="0kJ84W1fS4hGcbfnPI8M-28">
          <mxGeometry x="80" width="80" height="40" as="geometry">
            <mxRectangle width="80" height="40" as="alternateBounds" />
          </mxGeometry>
        </mxCell>
        <mxCell id="0kJ84W1fS4hGcbfnPI8M-31" value="" style="shape=tableRow;horizontal=0;startSize=0;swimlaneHead=0;swimlaneBody=0;strokeColor=inherit;top=0;left=0;bottom=0;right=0;collapsible=0;dropTarget=0;fillColor=none;points=[[0,0.5],[1,0.5]];portConstraint=eastwest;fontFamily=Comic Sans MS;" vertex="1" parent="0kJ84W1fS4hGcbfnPI8M-27">
          <mxGeometry y="40" width="160" height="40" as="geometry" />
        </mxCell>
        <mxCell id="0kJ84W1fS4hGcbfnPI8M-32" value="uint32_t" style="shape=partialRectangle;html=1;whiteSpace=wrap;connectable=0;strokeColor=#6c8ebf;overflow=hidden;fillColor=#dae8fc;top=0;left=0;bottom=0;right=0;pointerEvents=1;fontFamily=Comic Sans MS;" vertex="1" parent="0kJ84W1fS4hGcbfnPI8M-31">
          <mxGeometry width="80" height="40" as="geometry">
            <mxRectangle width="80" height="40" as="alternateBounds" />
          </mxGeometry>
        </mxCell>
        <mxCell id="0kJ84W1fS4hGcbfnPI8M-33" value="count" style="shape=partialRectangle;html=1;whiteSpace=wrap;connectable=0;strokeColor=#6c8ebf;overflow=hidden;fillColor=#dae8fc;top=0;left=0;bottom=0;right=0;pointerEvents=1;fontFamily=Comic Sans MS;" vertex="1" parent="0kJ84W1fS4hGcbfnPI8M-31">
          <mxGeometry x="80" width="80" height="40" as="geometry">
            <mxRectangle width="80" height="40" as="alternateBounds" />
          </mxGeometry>
        </mxCell>
        <mxCell id="0kJ84W1fS4hGcbfnPI8M-34" value="" style="shape=tableRow;horizontal=0;startSize=0;swimlaneHead=0;swimlaneBody=0;strokeColor=inherit;top=0;left=0;bottom=0;right=0;collapsible=0;dropTarget=0;fillColor=none;points=[[0,0.5],[1,0.5]];portConstraint=eastwest;fontFamily=Comic Sans MS;" vertex="1" parent="0kJ84W1fS4hGcbfnPI8M-27">
          <mxGeometry y="80" width="160" height="40" as="geometry" />
        </mxCell>
        <mxCell id="0kJ84W1fS4hGcbfnPI8M-35" value="union" style="shape=partialRectangle;html=1;whiteSpace=wrap;connectable=0;strokeColor=#82b366;overflow=hidden;fillColor=#d5e8d4;top=0;left=0;bottom=0;right=0;pointerEvents=1;fontFamily=Comic Sans MS;" vertex="1" parent="0kJ84W1fS4hGcbfnPI8M-34">
          <mxGeometry width="80" height="40" as="geometry">
            <mxRectangle width="80" height="40" as="alternateBounds" />
          </mxGeometry>
        </mxCell>
        <mxCell id="0kJ84W1fS4hGcbfnPI8M-36" value="data" style="shape=partialRectangle;html=1;whiteSpace=wrap;connectable=0;strokeColor=#82b366;overflow=hidden;fillColor=#d5e8d4;top=0;left=0;bottom=0;right=0;pointerEvents=1;fontFamily=Comic Sans MS;" vertex="1" parent="0kJ84W1fS4hGcbfnPI8M-34">
          <mxGeometry x="80" width="80" height="40" as="geometry">
            <mxRectangle width="80" height="40" as="alternateBounds" />
          </mxGeometry>
        </mxCell>
        <mxCell id="0kJ84W1fS4hGcbfnPI8M-37" value="" style="shape=tableRow;horizontal=0;startSize=0;swimlaneHead=0;swimlaneBody=0;strokeColor=inherit;top=0;left=0;bottom=0;right=0;collapsible=0;dropTarget=0;fillColor=none;points=[[0,0.5],[1,0.5]];portConstraint=eastwest;fontFamily=Comic Sans MS;" vertex="1" parent="0kJ84W1fS4hGcbfnPI8M-27">
          <mxGeometry y="120" width="160" height="40" as="geometry" />
        </mxCell>
        <mxCell id="0kJ84W1fS4hGcbfnPI8M-38" value="uint32_t" style="shape=partialRectangle;html=1;whiteSpace=wrap;connectable=0;strokeColor=#82b366;overflow=hidden;fillColor=#d5e8d4;top=0;left=0;bottom=0;right=0;pointerEvents=1;fontFamily=Comic Sans MS;" vertex="1" parent="0kJ84W1fS4hGcbfnPI8M-37">
          <mxGeometry width="80" height="40" as="geometry">
            <mxRectangle width="80" height="40" as="alternateBounds" />
          </mxGeometry>
        </mxCell>
        <mxCell id="0kJ84W1fS4hGcbfnPI8M-39" value="data.offset" style="shape=partialRectangle;html=1;whiteSpace=wrap;connectable=0;strokeColor=#82b366;overflow=hidden;fillColor=#d5e8d4;top=0;left=0;bottom=0;right=0;pointerEvents=1;fontFamily=Comic Sans MS;" vertex="1" parent="0kJ84W1fS4hGcbfnPI8M-37">
          <mxGeometry x="80" width="80" height="40" as="geometry">
            <mxRectangle width="80" height="40" as="alternateBounds" />
          </mxGeometry>
        </mxCell>
        <mxCell id="0kJ84W1fS4hGcbfnPI8M-40" value="" style="shape=tableRow;horizontal=0;startSize=0;swimlaneHead=0;swimlaneBody=0;strokeColor=inherit;top=0;left=0;bottom=0;right=0;collapsible=0;dropTarget=0;fillColor=none;points=[[0,0.5],[1,0.5]];portConstraint=eastwest;fontFamily=Comic Sans MS;" vertex="1" parent="0kJ84W1fS4hGcbfnPI8M-27">
          <mxGeometry y="160" width="160" height="40" as="geometry" />
        </mxCell>
        <mxCell id="0kJ84W1fS4hGcbfnPI8M-41" value="uint8_t" style="shape=partialRectangle;html=1;whiteSpace=wrap;connectable=0;strokeColor=#82b366;overflow=hidden;fillColor=#d5e8d4;top=0;left=0;bottom=0;right=0;pointerEvents=1;fontFamily=Comic Sans MS;" vertex="1" parent="0kJ84W1fS4hGcbfnPI8M-40">
          <mxGeometry width="80" height="40" as="geometry">
            <mxRectangle width="80" height="40" as="alternateBounds" />
          </mxGeometry>
        </mxCell>
        <mxCell id="0kJ84W1fS4hGcbfnPI8M-42" value="data.value[4]" style="shape=partialRectangle;html=1;whiteSpace=wrap;connectable=0;strokeColor=#82b366;overflow=hidden;fillColor=#d5e8d4;top=0;left=0;bottom=0;right=0;pointerEvents=1;fontFamily=Comic Sans MS;" vertex="1" parent="0kJ84W1fS4hGcbfnPI8M-40">
          <mxGeometry x="80" width="80" height="40" as="geometry">
            <mxRectangle width="80" height="40" as="alternateBounds" />
          </mxGeometry>
        </mxCell>
        <mxCell id="0kJ84W1fS4hGcbfnPI8M-43" style="shape=tableRow;horizontal=0;startSize=0;swimlaneHead=0;swimlaneBody=0;strokeColor=inherit;top=0;left=0;bottom=0;right=0;collapsible=0;dropTarget=0;fillColor=none;points=[[0,0.5],[1,0.5]];portConstraint=eastwest;fontFamily=Comic Sans MS;" vertex="1" parent="0kJ84W1fS4hGcbfnPI8M-27">
          <mxGeometry y="200" width="160" height="40" as="geometry" />
        </mxCell>
        <mxCell id="0kJ84W1fS4hGcbfnPI8M-44" value="uint8_t" style="shape=partialRectangle;html=1;whiteSpace=wrap;connectable=0;strokeColor=#d79b00;overflow=hidden;fillColor=#ffe6cc;top=0;left=0;bottom=0;right=0;pointerEvents=1;fontFamily=Comic Sans MS;" vertex="1" parent="0kJ84W1fS4hGcbfnPI8M-43">
          <mxGeometry width="80" height="40" as="geometry">
            <mxRectangle width="80" height="40" as="alternateBounds" />
          </mxGeometry>
        </mxCell>
        <mxCell id="0kJ84W1fS4hGcbfnPI8M-45" value="type" style="shape=partialRectangle;html=1;whiteSpace=wrap;connectable=0;strokeColor=#d79b00;overflow=hidden;fillColor=#ffe6cc;top=0;left=0;bottom=0;right=0;pointerEvents=1;fontFamily=Comic Sans MS;" vertex="1" parent="0kJ84W1fS4hGcbfnPI8M-43">
          <mxGeometry x="80" width="80" height="40" as="geometry">
            <mxRectangle width="80" height="40" as="alternateBounds" />
          </mxGeometry>
        </mxCell>
        <mxCell id="0kJ84W1fS4hGcbfnPI8M-46" style="shape=tableRow;horizontal=0;startSize=0;swimlaneHead=0;swimlaneBody=0;strokeColor=inherit;top=0;left=0;bottom=0;right=0;collapsible=0;dropTarget=0;fillColor=none;points=[[0,0.5],[1,0.5]];portConstraint=eastwest;fontFamily=Comic Sans MS;" vertex="1" parent="0kJ84W1fS4hGcbfnPI8M-27">
          <mxGeometry y="240" width="160" height="40" as="geometry" />
        </mxCell>
        <mxCell id="0kJ84W1fS4hGcbfnPI8M-47" value="uint8_t" style="shape=partialRectangle;html=1;whiteSpace=wrap;connectable=0;strokeColor=#d6b656;overflow=hidden;fillColor=#fff2cc;top=0;left=0;bottom=0;right=0;pointerEvents=1;fontFamily=Comic Sans MS;" vertex="1" parent="0kJ84W1fS4hGcbfnPI8M-46">
          <mxGeometry width="80" height="40" as="geometry">
            <mxRectangle width="80" height="40" as="alternateBounds" />
          </mxGeometry>
        </mxCell>
        <mxCell id="0kJ84W1fS4hGcbfnPI8M-48" value="reserved[3]" style="shape=partialRectangle;html=1;whiteSpace=wrap;connectable=0;strokeColor=#d6b656;overflow=hidden;fillColor=#fff2cc;top=0;left=0;bottom=0;right=0;pointerEvents=1;fontFamily=Comic Sans MS;" vertex="1" parent="0kJ84W1fS4hGcbfnPI8M-46">
          <mxGeometry x="80" width="80" height="40" as="geometry">
            <mxRectangle width="80" height="40" as="alternateBounds" />
          </mxGeometry>
        </mxCell>
        <mxCell id="0kJ84W1fS4hGcbfnPI8M-49" value="&lt;font style=&quot;font-size: 16px;&quot; face=&quot;Comic Sans MS&quot;&gt;union camera_metadata_data&lt;/font&gt;" style="rounded=1;whiteSpace=wrap;html=1;fillColor=none;strokeColor=none;" vertex="1" parent="1">
          <mxGeometry x="20" y="900" width="260" height="60" as="geometry" />
        </mxCell>
        <mxCell id="0kJ84W1fS4hGcbfnPI8M-50" value="" style="shape=table;startSize=0;container=1;collapsible=0;childLayout=tableLayout;fontFamily=Comic Sans MS;" vertex="1" parent="1">
          <mxGeometry x="60" y="950" width="180" height="240" as="geometry" />
        </mxCell>
        <mxCell id="0kJ84W1fS4hGcbfnPI8M-51" value="" style="shape=tableRow;horizontal=0;startSize=0;swimlaneHead=0;swimlaneBody=0;strokeColor=inherit;top=0;left=0;bottom=0;right=0;collapsible=0;dropTarget=0;fillColor=none;points=[[0,0.5],[1,0.5]];portConstraint=eastwest;fontFamily=Comic Sans MS;" vertex="1" parent="0kJ84W1fS4hGcbfnPI8M-50">
          <mxGeometry width="180" height="40" as="geometry" />
        </mxCell>
        <mxCell id="0kJ84W1fS4hGcbfnPI8M-52" value="uint8_t" style="shape=partialRectangle;html=1;whiteSpace=wrap;connectable=0;strokeColor=#9673a6;overflow=hidden;fillColor=#e1d5e7;top=0;left=0;bottom=0;right=0;pointerEvents=1;fontFamily=Comic Sans MS;" vertex="1" parent="0kJ84W1fS4hGcbfnPI8M-51">
          <mxGeometry width="110" height="40" as="geometry">
            <mxRectangle width="110" height="40" as="alternateBounds" />
          </mxGeometry>
        </mxCell>
        <mxCell id="0kJ84W1fS4hGcbfnPI8M-53" value="u8" style="shape=partialRectangle;html=1;whiteSpace=wrap;connectable=0;strokeColor=#9673a6;overflow=hidden;fillColor=#e1d5e7;top=0;left=0;bottom=0;right=0;pointerEvents=1;fontFamily=Comic Sans MS;" vertex="1" parent="0kJ84W1fS4hGcbfnPI8M-51">
          <mxGeometry x="110" width="70" height="40" as="geometry">
            <mxRectangle width="70" height="40" as="alternateBounds" />
          </mxGeometry>
        </mxCell>
        <mxCell id="0kJ84W1fS4hGcbfnPI8M-54" value="" style="shape=tableRow;horizontal=0;startSize=0;swimlaneHead=0;swimlaneBody=0;strokeColor=inherit;top=0;left=0;bottom=0;right=0;collapsible=0;dropTarget=0;fillColor=none;points=[[0,0.5],[1,0.5]];portConstraint=eastwest;fontFamily=Comic Sans MS;" vertex="1" parent="0kJ84W1fS4hGcbfnPI8M-50">
          <mxGeometry y="40" width="180" height="40" as="geometry" />
        </mxCell>
        <mxCell id="0kJ84W1fS4hGcbfnPI8M-55" value="int32_t" style="shape=partialRectangle;html=1;whiteSpace=wrap;connectable=0;strokeColor=#9673a6;overflow=hidden;fillColor=#e1d5e7;top=0;left=0;bottom=0;right=0;pointerEvents=1;fontFamily=Comic Sans MS;" vertex="1" parent="0kJ84W1fS4hGcbfnPI8M-54">
          <mxGeometry width="110" height="40" as="geometry">
            <mxRectangle width="110" height="40" as="alternateBounds" />
          </mxGeometry>
        </mxCell>
        <mxCell id="0kJ84W1fS4hGcbfnPI8M-56" value="i32" style="shape=partialRectangle;html=1;whiteSpace=wrap;connectable=0;strokeColor=#9673a6;overflow=hidden;fillColor=#e1d5e7;top=0;left=0;bottom=0;right=0;pointerEvents=1;fontFamily=Comic Sans MS;" vertex="1" parent="0kJ84W1fS4hGcbfnPI8M-54">
          <mxGeometry x="110" width="70" height="40" as="geometry">
            <mxRectangle width="70" height="40" as="alternateBounds" />
          </mxGeometry>
        </mxCell>
        <mxCell id="0kJ84W1fS4hGcbfnPI8M-57" value="" style="shape=tableRow;horizontal=0;startSize=0;swimlaneHead=0;swimlaneBody=0;strokeColor=inherit;top=0;left=0;bottom=0;right=0;collapsible=0;dropTarget=0;fillColor=none;points=[[0,0.5],[1,0.5]];portConstraint=eastwest;fontFamily=Comic Sans MS;" vertex="1" parent="0kJ84W1fS4hGcbfnPI8M-50">
          <mxGeometry y="80" width="180" height="40" as="geometry" />
        </mxCell>
        <mxCell id="0kJ84W1fS4hGcbfnPI8M-58" value="float" style="shape=partialRectangle;html=1;whiteSpace=wrap;connectable=0;strokeColor=#9673a6;overflow=hidden;fillColor=#e1d5e7;top=0;left=0;bottom=0;right=0;pointerEvents=1;fontFamily=Comic Sans MS;" vertex="1" parent="0kJ84W1fS4hGcbfnPI8M-57">
          <mxGeometry width="110" height="40" as="geometry">
            <mxRectangle width="110" height="40" as="alternateBounds" />
          </mxGeometry>
        </mxCell>
        <mxCell id="0kJ84W1fS4hGcbfnPI8M-59" value="f" style="shape=partialRectangle;html=1;whiteSpace=wrap;connectable=0;strokeColor=#9673a6;overflow=hidden;fillColor=#e1d5e7;top=0;left=0;bottom=0;right=0;pointerEvents=1;fontFamily=Comic Sans MS;" vertex="1" parent="0kJ84W1fS4hGcbfnPI8M-57">
          <mxGeometry x="110" width="70" height="40" as="geometry">
            <mxRectangle width="70" height="40" as="alternateBounds" />
          </mxGeometry>
        </mxCell>
        <mxCell id="0kJ84W1fS4hGcbfnPI8M-60" value="" style="shape=tableRow;horizontal=0;startSize=0;swimlaneHead=0;swimlaneBody=0;strokeColor=inherit;top=0;left=0;bottom=0;right=0;collapsible=0;dropTarget=0;fillColor=none;points=[[0,0.5],[1,0.5]];portConstraint=eastwest;fontFamily=Comic Sans MS;" vertex="1" parent="0kJ84W1fS4hGcbfnPI8M-50">
          <mxGeometry y="120" width="180" height="40" as="geometry" />
        </mxCell>
        <mxCell id="0kJ84W1fS4hGcbfnPI8M-61" value="int64_t" style="shape=partialRectangle;html=1;whiteSpace=wrap;connectable=0;strokeColor=#9673a6;overflow=hidden;fillColor=#e1d5e7;top=0;left=0;bottom=0;right=0;pointerEvents=1;fontFamily=Comic Sans MS;" vertex="1" parent="0kJ84W1fS4hGcbfnPI8M-60">
          <mxGeometry width="110" height="40" as="geometry">
            <mxRectangle width="110" height="40" as="alternateBounds" />
          </mxGeometry>
        </mxCell>
        <mxCell id="0kJ84W1fS4hGcbfnPI8M-62" value="i64" style="shape=partialRectangle;html=1;whiteSpace=wrap;connectable=0;strokeColor=#9673a6;overflow=hidden;fillColor=#e1d5e7;top=0;left=0;bottom=0;right=0;pointerEvents=1;fontFamily=Comic Sans MS;" vertex="1" parent="0kJ84W1fS4hGcbfnPI8M-60">
          <mxGeometry x="110" width="70" height="40" as="geometry">
            <mxRectangle width="70" height="40" as="alternateBounds" />
          </mxGeometry>
        </mxCell>
        <mxCell id="0kJ84W1fS4hGcbfnPI8M-63" value="" style="shape=tableRow;horizontal=0;startSize=0;swimlaneHead=0;swimlaneBody=0;strokeColor=inherit;top=0;left=0;bottom=0;right=0;collapsible=0;dropTarget=0;fillColor=none;points=[[0,0.5],[1,0.5]];portConstraint=eastwest;fontFamily=Comic Sans MS;" vertex="1" parent="0kJ84W1fS4hGcbfnPI8M-50">
          <mxGeometry y="160" width="180" height="40" as="geometry" />
        </mxCell>
        <mxCell id="0kJ84W1fS4hGcbfnPI8M-64" value="double" style="shape=partialRectangle;html=1;whiteSpace=wrap;connectable=0;strokeColor=#9673a6;overflow=hidden;fillColor=#e1d5e7;top=0;left=0;bottom=0;right=0;pointerEvents=1;fontFamily=Comic Sans MS;" vertex="1" parent="0kJ84W1fS4hGcbfnPI8M-63">
          <mxGeometry width="110" height="40" as="geometry">
            <mxRectangle width="110" height="40" as="alternateBounds" />
          </mxGeometry>
        </mxCell>
        <mxCell id="0kJ84W1fS4hGcbfnPI8M-65" value="d" style="shape=partialRectangle;html=1;whiteSpace=wrap;connectable=0;strokeColor=#9673a6;overflow=hidden;fillColor=#e1d5e7;top=0;left=0;bottom=0;right=0;pointerEvents=1;fontFamily=Comic Sans MS;" vertex="1" parent="0kJ84W1fS4hGcbfnPI8M-63">
          <mxGeometry x="110" width="70" height="40" as="geometry">
            <mxRectangle width="70" height="40" as="alternateBounds" />
          </mxGeometry>
        </mxCell>
        <mxCell id="0kJ84W1fS4hGcbfnPI8M-66" value="" style="shape=tableRow;horizontal=0;startSize=0;swimlaneHead=0;swimlaneBody=0;strokeColor=inherit;top=0;left=0;bottom=0;right=0;collapsible=0;dropTarget=0;fillColor=none;points=[[0,0.5],[1,0.5]];portConstraint=eastwest;fontFamily=Comic Sans MS;" vertex="1" parent="0kJ84W1fS4hGcbfnPI8M-50">
          <mxGeometry y="200" width="180" height="40" as="geometry" />
        </mxCell>
        <mxCell id="0kJ84W1fS4hGcbfnPI8M-67" value="camera_metadata&lt;br&gt;_rational_t" style="shape=partialRectangle;html=1;whiteSpace=wrap;connectable=0;strokeColor=#9673a6;overflow=hidden;fillColor=#e1d5e7;top=0;left=0;bottom=0;right=0;pointerEvents=1;fontFamily=Comic Sans MS;" vertex="1" parent="0kJ84W1fS4hGcbfnPI8M-66">
          <mxGeometry width="110" height="40" as="geometry">
            <mxRectangle width="110" height="40" as="alternateBounds" />
          </mxGeometry>
        </mxCell>
        <mxCell id="0kJ84W1fS4hGcbfnPI8M-68" value="r" style="shape=partialRectangle;html=1;whiteSpace=wrap;connectable=0;strokeColor=#9673a6;overflow=hidden;fillColor=#e1d5e7;top=0;left=0;bottom=0;right=0;pointerEvents=1;fontFamily=Comic Sans MS;" vertex="1" parent="0kJ84W1fS4hGcbfnPI8M-66">
          <mxGeometry x="110" width="70" height="40" as="geometry">
            <mxRectangle width="70" height="40" as="alternateBounds" />
          </mxGeometry>
        </mxCell>
        <mxCell id="0kJ84W1fS4hGcbfnPI8M-69" value="&lt;font style=&quot;font-size: 16px;&quot; face=&quot;Comic Sans MS&quot;&gt;enum camera_metadata_section&lt;/font&gt;" style="rounded=1;whiteSpace=wrap;html=1;fillColor=none;strokeColor=none;" vertex="1" parent="1">
          <mxGeometry x="1290" y="390" width="260" height="60" as="geometry" />
        </mxCell>
        <mxCell id="0kJ84W1fS4hGcbfnPI8M-70" value="" style="shape=table;startSize=0;container=1;collapsible=0;childLayout=tableLayout;fontFamily=Comic Sans MS;" vertex="1" parent="1">
          <mxGeometry x="1300" y="440" width="240" height="280" as="geometry" />
        </mxCell>
        <mxCell id="0kJ84W1fS4hGcbfnPI8M-71" value="" style="shape=tableRow;horizontal=0;startSize=0;swimlaneHead=0;swimlaneBody=0;strokeColor=inherit;top=0;left=0;bottom=0;right=0;collapsible=0;dropTarget=0;fillColor=none;points=[[0,0.5],[1,0.5]];portConstraint=eastwest;fontFamily=Comic Sans MS;" vertex="1" parent="0kJ84W1fS4hGcbfnPI8M-70">
          <mxGeometry width="240" height="40" as="geometry" />
        </mxCell>
        <mxCell id="0kJ84W1fS4hGcbfnPI8M-72" value="ANDROID_COLOR_CORRECTION" style="shape=partialRectangle;html=1;whiteSpace=wrap;connectable=0;strokeColor=#6c8ebf;overflow=hidden;fillColor=#dae8fc;top=0;left=0;bottom=0;right=0;pointerEvents=1;fontFamily=Comic Sans MS;" vertex="1" parent="0kJ84W1fS4hGcbfnPI8M-71">
          <mxGeometry width="240" height="40" as="geometry">
            <mxRectangle width="240" height="40" as="alternateBounds" />
          </mxGeometry>
        </mxCell>
        <mxCell id="0kJ84W1fS4hGcbfnPI8M-73" value="" style="shape=tableRow;horizontal=0;startSize=0;swimlaneHead=0;swimlaneBody=0;strokeColor=inherit;top=0;left=0;bottom=0;right=0;collapsible=0;dropTarget=0;fillColor=none;points=[[0,0.5],[1,0.5]];portConstraint=eastwest;fontFamily=Comic Sans MS;" vertex="1" parent="0kJ84W1fS4hGcbfnPI8M-70">
          <mxGeometry y="40" width="240" height="40" as="geometry" />
        </mxCell>
        <mxCell id="0kJ84W1fS4hGcbfnPI8M-74" value="ANDROID_CONTROL" style="shape=partialRectangle;html=1;whiteSpace=wrap;connectable=0;strokeColor=#82b366;overflow=hidden;fillColor=#d5e8d4;top=0;left=0;bottom=0;right=0;pointerEvents=1;fontFamily=Comic Sans MS;" vertex="1" parent="0kJ84W1fS4hGcbfnPI8M-73">
          <mxGeometry width="240" height="40" as="geometry">
            <mxRectangle width="240" height="40" as="alternateBounds" />
          </mxGeometry>
        </mxCell>
        <mxCell id="0kJ84W1fS4hGcbfnPI8M-75" value="" style="shape=tableRow;horizontal=0;startSize=0;swimlaneHead=0;swimlaneBody=0;strokeColor=inherit;top=0;left=0;bottom=0;right=0;collapsible=0;dropTarget=0;fillColor=none;points=[[0,0.5],[1,0.5]];portConstraint=eastwest;fontFamily=Comic Sans MS;" vertex="1" parent="0kJ84W1fS4hGcbfnPI8M-70">
          <mxGeometry y="80" width="240" height="40" as="geometry" />
        </mxCell>
        <mxCell id="0kJ84W1fS4hGcbfnPI8M-76" value="ANDROID_DEMOSAIC" style="shape=partialRectangle;html=1;whiteSpace=wrap;connectable=0;strokeColor=#d79b00;overflow=hidden;fillColor=#ffe6cc;top=0;left=0;bottom=0;right=0;pointerEvents=1;fontFamily=Comic Sans MS;" vertex="1" parent="0kJ84W1fS4hGcbfnPI8M-75">
          <mxGeometry width="240" height="40" as="geometry">
            <mxRectangle width="240" height="40" as="alternateBounds" />
          </mxGeometry>
        </mxCell>
        <mxCell id="0kJ84W1fS4hGcbfnPI8M-77" value="" style="shape=tableRow;horizontal=0;startSize=0;swimlaneHead=0;swimlaneBody=0;strokeColor=inherit;top=0;left=0;bottom=0;right=0;collapsible=0;dropTarget=0;fillColor=none;points=[[0,0.5],[1,0.5]];portConstraint=eastwest;fontFamily=Comic Sans MS;" vertex="1" parent="0kJ84W1fS4hGcbfnPI8M-70">
          <mxGeometry y="120" width="240" height="40" as="geometry" />
        </mxCell>
        <mxCell id="0kJ84W1fS4hGcbfnPI8M-78" value="..." style="shape=partialRectangle;html=1;whiteSpace=wrap;connectable=0;strokeColor=inherit;overflow=hidden;fillColor=none;top=0;left=0;bottom=0;right=0;pointerEvents=1;fontFamily=Comic Sans MS;" vertex="1" parent="0kJ84W1fS4hGcbfnPI8M-77">
          <mxGeometry width="240" height="40" as="geometry">
            <mxRectangle width="240" height="40" as="alternateBounds" />
          </mxGeometry>
        </mxCell>
        <mxCell id="0kJ84W1fS4hGcbfnPI8M-79" value="" style="shape=tableRow;horizontal=0;startSize=0;swimlaneHead=0;swimlaneBody=0;strokeColor=inherit;top=0;left=0;bottom=0;right=0;collapsible=0;dropTarget=0;fillColor=none;points=[[0,0.5],[1,0.5]];portConstraint=eastwest;fontFamily=Comic Sans MS;" vertex="1" parent="0kJ84W1fS4hGcbfnPI8M-70">
          <mxGeometry y="160" width="240" height="40" as="geometry" />
        </mxCell>
        <mxCell id="0kJ84W1fS4hGcbfnPI8M-80" value="ANDROID_JPEGR" style="shape=partialRectangle;html=1;whiteSpace=wrap;connectable=0;strokeColor=#9673a6;overflow=hidden;fillColor=#e1d5e7;top=0;left=0;bottom=0;right=0;pointerEvents=1;fontFamily=Comic Sans MS;" vertex="1" parent="0kJ84W1fS4hGcbfnPI8M-79">
          <mxGeometry width="240" height="40" as="geometry">
            <mxRectangle width="240" height="40" as="alternateBounds" />
          </mxGeometry>
        </mxCell>
        <mxCell id="0kJ84W1fS4hGcbfnPI8M-81" value="" style="shape=tableRow;horizontal=0;startSize=0;swimlaneHead=0;swimlaneBody=0;strokeColor=inherit;top=0;left=0;bottom=0;right=0;collapsible=0;dropTarget=0;fillColor=none;points=[[0,0.5],[1,0.5]];portConstraint=eastwest;fontFamily=Comic Sans MS;" vertex="1" parent="0kJ84W1fS4hGcbfnPI8M-70">
          <mxGeometry y="200" width="240" height="40" as="geometry" />
        </mxCell>
        <mxCell id="0kJ84W1fS4hGcbfnPI8M-82" value="ANDROID_SECTION_COUNT" style="shape=partialRectangle;html=1;whiteSpace=wrap;connectable=0;strokeColor=inherit;overflow=hidden;fillColor=none;top=0;left=0;bottom=0;right=0;pointerEvents=1;fontFamily=Comic Sans MS;" vertex="1" parent="0kJ84W1fS4hGcbfnPI8M-81">
          <mxGeometry width="240" height="40" as="geometry">
            <mxRectangle width="240" height="40" as="alternateBounds" />
          </mxGeometry>
        </mxCell>
        <mxCell id="0kJ84W1fS4hGcbfnPI8M-83" value="" style="shape=tableRow;horizontal=0;startSize=0;swimlaneHead=0;swimlaneBody=0;strokeColor=inherit;top=0;left=0;bottom=0;right=0;collapsible=0;dropTarget=0;fillColor=none;points=[[0,0.5],[1,0.5]];portConstraint=eastwest;fontFamily=Comic Sans MS;" vertex="1" parent="0kJ84W1fS4hGcbfnPI8M-70">
          <mxGeometry y="240" width="240" height="40" as="geometry" />
        </mxCell>
        <mxCell id="0kJ84W1fS4hGcbfnPI8M-84" value="VENDOR_SECTION = 0x8000" style="shape=partialRectangle;html=1;whiteSpace=wrap;connectable=0;strokeColor=inherit;overflow=hidden;fillColor=none;top=0;left=0;bottom=0;right=0;pointerEvents=1;fontFamily=Comic Sans MS;" vertex="1" parent="0kJ84W1fS4hGcbfnPI8M-83">
          <mxGeometry width="240" height="40" as="geometry">
            <mxRectangle width="240" height="40" as="alternateBounds" />
          </mxGeometry>
        </mxCell>
        <mxCell id="0kJ84W1fS4hGcbfnPI8M-85" value="&lt;font style=&quot;font-size: 16px;&quot; face=&quot;Comic Sans MS&quot;&gt;enum camera_metadata_tag&lt;/font&gt;" style="rounded=1;whiteSpace=wrap;html=1;fillColor=none;strokeColor=none;" vertex="1" parent="1">
          <mxGeometry x="870" y="210" width="260" height="60" as="geometry" />
        </mxCell>
        <mxCell id="0kJ84W1fS4hGcbfnPI8M-86" value="" style="shape=table;startSize=0;container=1;collapsible=0;childLayout=tableLayout;fontFamily=Comic Sans MS;" vertex="1" parent="1">
          <mxGeometry x="860" y="260" width="300" height="560" as="geometry" />
        </mxCell>
        <mxCell id="0kJ84W1fS4hGcbfnPI8M-87" value="" style="shape=tableRow;horizontal=0;startSize=0;swimlaneHead=0;swimlaneBody=0;strokeColor=inherit;top=0;left=0;bottom=0;right=0;collapsible=0;dropTarget=0;fillColor=none;points=[[0,0.5],[1,0.5]];portConstraint=eastwest;fontFamily=Comic Sans MS;" vertex="1" parent="0kJ84W1fS4hGcbfnPI8M-86">
          <mxGeometry width="300" height="40" as="geometry" />
        </mxCell>
        <mxCell id="0kJ84W1fS4hGcbfnPI8M-88" value="ANDROID_COLOR_CORRECTION_MODE" style="shape=partialRectangle;html=1;whiteSpace=wrap;connectable=0;strokeColor=#6c8ebf;overflow=hidden;fillColor=#dae8fc;top=0;left=0;bottom=0;right=0;pointerEvents=1;fontFamily=Comic Sans MS;" vertex="1" parent="0kJ84W1fS4hGcbfnPI8M-87">
          <mxGeometry width="300" height="40" as="geometry">
            <mxRectangle width="300" height="40" as="alternateBounds" />
          </mxGeometry>
        </mxCell>
        <mxCell id="0kJ84W1fS4hGcbfnPI8M-89" value="" style="shape=tableRow;horizontal=0;startSize=0;swimlaneHead=0;swimlaneBody=0;strokeColor=inherit;top=0;left=0;bottom=0;right=0;collapsible=0;dropTarget=0;fillColor=none;points=[[0,0.5],[1,0.5]];portConstraint=eastwest;fontFamily=Comic Sans MS;" vertex="1" parent="0kJ84W1fS4hGcbfnPI8M-86">
          <mxGeometry y="40" width="300" height="40" as="geometry" />
        </mxCell>
        <mxCell id="0kJ84W1fS4hGcbfnPI8M-90" value="ANDROID_COLOR_CORRECTION_TRANSFORM" style="shape=partialRectangle;html=1;whiteSpace=wrap;connectable=0;strokeColor=#6c8ebf;overflow=hidden;fillColor=#dae8fc;top=0;left=0;bottom=0;right=0;pointerEvents=1;fontFamily=Comic Sans MS;" vertex="1" parent="0kJ84W1fS4hGcbfnPI8M-89">
          <mxGeometry width="300" height="40" as="geometry">
            <mxRectangle width="300" height="40" as="alternateBounds" />
          </mxGeometry>
        </mxCell>
        <mxCell id="0kJ84W1fS4hGcbfnPI8M-91" value="" style="shape=tableRow;horizontal=0;startSize=0;swimlaneHead=0;swimlaneBody=0;strokeColor=inherit;top=0;left=0;bottom=0;right=0;collapsible=0;dropTarget=0;fillColor=none;points=[[0,0.5],[1,0.5]];portConstraint=eastwest;fontFamily=Comic Sans MS;" vertex="1" parent="0kJ84W1fS4hGcbfnPI8M-86">
          <mxGeometry y="80" width="300" height="40" as="geometry" />
        </mxCell>
        <mxCell id="0kJ84W1fS4hGcbfnPI8M-92" value="ANDROID_COLOR_CORRECTION_GAINS" style="shape=partialRectangle;html=1;whiteSpace=wrap;connectable=0;strokeColor=#6c8ebf;overflow=hidden;fillColor=#dae8fc;top=0;left=0;bottom=0;right=0;pointerEvents=1;fontFamily=Comic Sans MS;" vertex="1" parent="0kJ84W1fS4hGcbfnPI8M-91">
          <mxGeometry width="300" height="40" as="geometry">
            <mxRectangle width="300" height="40" as="alternateBounds" />
          </mxGeometry>
        </mxCell>
        <mxCell id="0kJ84W1fS4hGcbfnPI8M-93" value="" style="shape=tableRow;horizontal=0;startSize=0;swimlaneHead=0;swimlaneBody=0;strokeColor=inherit;top=0;left=0;bottom=0;right=0;collapsible=0;dropTarget=0;fillColor=none;points=[[0,0.5],[1,0.5]];portConstraint=eastwest;fontFamily=Comic Sans MS;" vertex="1" parent="0kJ84W1fS4hGcbfnPI8M-86">
          <mxGeometry y="120" width="300" height="40" as="geometry" />
        </mxCell>
        <mxCell id="0kJ84W1fS4hGcbfnPI8M-94" value="ANDROID_COLOR_CORRECTION_ABERRATION_MODE" style="shape=partialRectangle;html=1;whiteSpace=wrap;connectable=0;strokeColor=#6c8ebf;overflow=hidden;fillColor=#dae8fc;top=0;left=0;bottom=0;right=0;pointerEvents=1;fontFamily=Comic Sans MS;fontSize=10;" vertex="1" parent="0kJ84W1fS4hGcbfnPI8M-93">
          <mxGeometry width="300" height="40" as="geometry">
            <mxRectangle width="300" height="40" as="alternateBounds" />
          </mxGeometry>
        </mxCell>
        <mxCell id="0kJ84W1fS4hGcbfnPI8M-95" value="" style="shape=tableRow;horizontal=0;startSize=0;swimlaneHead=0;swimlaneBody=0;strokeColor=inherit;top=0;left=0;bottom=0;right=0;collapsible=0;dropTarget=0;fillColor=none;points=[[0,0.5],[1,0.5]];portConstraint=eastwest;fontFamily=Comic Sans MS;" vertex="1" parent="0kJ84W1fS4hGcbfnPI8M-86">
          <mxGeometry y="160" width="300" height="40" as="geometry" />
        </mxCell>
        <mxCell id="0kJ84W1fS4hGcbfnPI8M-96" value="ANDROID_COLOR_CORRECTION_AVAILABLE_ABERRATION_MODES" style="shape=partialRectangle;html=1;whiteSpace=wrap;connectable=0;strokeColor=#6c8ebf;overflow=hidden;fillColor=#dae8fc;top=0;left=0;bottom=0;right=0;pointerEvents=1;fontFamily=Comic Sans MS;fontSize=8;" vertex="1" parent="0kJ84W1fS4hGcbfnPI8M-95">
          <mxGeometry width="300" height="40" as="geometry">
            <mxRectangle width="300" height="40" as="alternateBounds" />
          </mxGeometry>
        </mxCell>
        <mxCell id="0kJ84W1fS4hGcbfnPI8M-113" style="shape=tableRow;horizontal=0;startSize=0;swimlaneHead=0;swimlaneBody=0;strokeColor=inherit;top=0;left=0;bottom=0;right=0;collapsible=0;dropTarget=0;fillColor=none;points=[[0,0.5],[1,0.5]];portConstraint=eastwest;fontFamily=Comic Sans MS;" vertex="1" parent="0kJ84W1fS4hGcbfnPI8M-86">
          <mxGeometry y="200" width="300" height="40" as="geometry" />
        </mxCell>
        <mxCell id="0kJ84W1fS4hGcbfnPI8M-114" value="&lt;font style=&quot;font-size: 12px;&quot;&gt;ANDROID_COLOR_CORRECTION_END&lt;/font&gt;" style="shape=partialRectangle;html=1;whiteSpace=wrap;connectable=0;strokeColor=#6c8ebf;overflow=hidden;fillColor=#dae8fc;top=0;left=0;bottom=0;right=0;pointerEvents=1;fontFamily=Comic Sans MS;fontSize=8;" vertex="1" parent="0kJ84W1fS4hGcbfnPI8M-113">
          <mxGeometry width="300" height="40" as="geometry">
            <mxRectangle width="300" height="40" as="alternateBounds" />
          </mxGeometry>
        </mxCell>
        <mxCell id="0kJ84W1fS4hGcbfnPI8M-97" value="" style="shape=tableRow;horizontal=0;startSize=0;swimlaneHead=0;swimlaneBody=0;strokeColor=inherit;top=0;left=0;bottom=0;right=0;collapsible=0;dropTarget=0;fillColor=none;points=[[0,0.5],[1,0.5]];portConstraint=eastwest;fontFamily=Comic Sans MS;" vertex="1" parent="0kJ84W1fS4hGcbfnPI8M-86">
          <mxGeometry y="240" width="300" height="40" as="geometry" />
        </mxCell>
        <mxCell id="0kJ84W1fS4hGcbfnPI8M-98" value="..." style="shape=partialRectangle;html=1;whiteSpace=wrap;connectable=0;strokeColor=inherit;overflow=hidden;fillColor=none;top=0;left=0;bottom=0;right=0;pointerEvents=1;fontFamily=Comic Sans MS;" vertex="1" parent="0kJ84W1fS4hGcbfnPI8M-97">
          <mxGeometry width="300" height="40" as="geometry">
            <mxRectangle width="300" height="40" as="alternateBounds" />
          </mxGeometry>
        </mxCell>
        <mxCell id="0kJ84W1fS4hGcbfnPI8M-99" value="" style="shape=tableRow;horizontal=0;startSize=0;swimlaneHead=0;swimlaneBody=0;strokeColor=inherit;top=0;left=0;bottom=0;right=0;collapsible=0;dropTarget=0;fillColor=none;points=[[0,0.5],[1,0.5]];portConstraint=eastwest;fontFamily=Comic Sans MS;" vertex="1" parent="0kJ84W1fS4hGcbfnPI8M-86">
          <mxGeometry y="280" width="300" height="40" as="geometry" />
        </mxCell>
        <mxCell id="0kJ84W1fS4hGcbfnPI8M-100" value="&lt;font style=&quot;font-size: 8px;&quot;&gt;ANDROID_JPEGR_AVAILABLE_JPEG_R_STREAM_CONFIGURATIONS&lt;/font&gt;" style="shape=partialRectangle;html=1;whiteSpace=wrap;connectable=0;strokeColor=#9673a6;overflow=hidden;fillColor=#e1d5e7;top=0;left=0;bottom=0;right=0;pointerEvents=1;fontFamily=Comic Sans MS;fontSize=8;" vertex="1" parent="0kJ84W1fS4hGcbfnPI8M-99">
          <mxGeometry width="300" height="40" as="geometry">
            <mxRectangle width="300" height="40" as="alternateBounds" />
          </mxGeometry>
        </mxCell>
        <mxCell id="0kJ84W1fS4hGcbfnPI8M-107" style="shape=tableRow;horizontal=0;startSize=0;swimlaneHead=0;swimlaneBody=0;strokeColor=inherit;top=0;left=0;bottom=0;right=0;collapsible=0;dropTarget=0;fillColor=none;points=[[0,0.5],[1,0.5]];portConstraint=eastwest;fontFamily=Comic Sans MS;" vertex="1" parent="0kJ84W1fS4hGcbfnPI8M-86">
          <mxGeometry y="320" width="300" height="40" as="geometry" />
        </mxCell>
        <mxCell id="0kJ84W1fS4hGcbfnPI8M-108" value="ANDROID_JPEGR_AVAILABLE_JPEG_R_MIN_FRAME_DURATIONS" style="shape=partialRectangle;html=1;whiteSpace=wrap;connectable=0;strokeColor=#9673a6;overflow=hidden;fillColor=#e1d5e7;top=0;left=0;bottom=0;right=0;pointerEvents=1;fontFamily=Comic Sans MS;fontSize=8;" vertex="1" parent="0kJ84W1fS4hGcbfnPI8M-107">
          <mxGeometry width="300" height="40" as="geometry">
            <mxRectangle width="300" height="40" as="alternateBounds" />
          </mxGeometry>
        </mxCell>
        <mxCell id="0kJ84W1fS4hGcbfnPI8M-105" style="shape=tableRow;horizontal=0;startSize=0;swimlaneHead=0;swimlaneBody=0;strokeColor=inherit;top=0;left=0;bottom=0;right=0;collapsible=0;dropTarget=0;fillColor=none;points=[[0,0.5],[1,0.5]];portConstraint=eastwest;fontFamily=Comic Sans MS;" vertex="1" parent="0kJ84W1fS4hGcbfnPI8M-86">
          <mxGeometry y="360" width="300" height="40" as="geometry" />
        </mxCell>
        <mxCell id="0kJ84W1fS4hGcbfnPI8M-106" value="&lt;font style=&quot;font-size: 10px;&quot;&gt;ANDROID_JPEGR_AVAILABLE_JPEG_R_STALL_DURATIONS&lt;/font&gt;" style="shape=partialRectangle;html=1;whiteSpace=wrap;connectable=0;strokeColor=#9673a6;overflow=hidden;fillColor=#e1d5e7;top=0;left=0;bottom=0;right=0;pointerEvents=1;fontFamily=Comic Sans MS;fontSize=8;" vertex="1" parent="0kJ84W1fS4hGcbfnPI8M-105">
          <mxGeometry width="300" height="40" as="geometry">
            <mxRectangle width="300" height="40" as="alternateBounds" />
          </mxGeometry>
        </mxCell>
        <mxCell id="0kJ84W1fS4hGcbfnPI8M-103" style="shape=tableRow;horizontal=0;startSize=0;swimlaneHead=0;swimlaneBody=0;strokeColor=inherit;top=0;left=0;bottom=0;right=0;collapsible=0;dropTarget=0;fillColor=none;points=[[0,0.5],[1,0.5]];portConstraint=eastwest;fontFamily=Comic Sans MS;" vertex="1" parent="0kJ84W1fS4hGcbfnPI8M-86">
          <mxGeometry y="400" width="300" height="40" as="geometry" />
        </mxCell>
        <mxCell id="0kJ84W1fS4hGcbfnPI8M-104" value="&lt;font style=&quot;font-size: 6px;&quot;&gt;ANDROID_JPEGR_AVAILABLE_JPEG_R_STREAM_CONFIGURATIONS_MAXIMUM_RESOLUTION&lt;/font&gt;" style="shape=partialRectangle;html=1;whiteSpace=wrap;connectable=0;strokeColor=#9673a6;overflow=hidden;fillColor=#e1d5e7;top=0;left=0;bottom=0;right=0;pointerEvents=1;fontFamily=Comic Sans MS;fontSize=8;" vertex="1" parent="0kJ84W1fS4hGcbfnPI8M-103">
          <mxGeometry width="300" height="40" as="geometry">
            <mxRectangle width="300" height="40" as="alternateBounds" />
          </mxGeometry>
        </mxCell>
        <mxCell id="0kJ84W1fS4hGcbfnPI8M-101" style="shape=tableRow;horizontal=0;startSize=0;swimlaneHead=0;swimlaneBody=0;strokeColor=inherit;top=0;left=0;bottom=0;right=0;collapsible=0;dropTarget=0;fillColor=none;points=[[0,0.5],[1,0.5]];portConstraint=eastwest;fontFamily=Comic Sans MS;" vertex="1" parent="0kJ84W1fS4hGcbfnPI8M-86">
          <mxGeometry y="440" width="300" height="40" as="geometry" />
        </mxCell>
        <mxCell id="0kJ84W1fS4hGcbfnPI8M-102" value="&lt;font style=&quot;font-size: 6px;&quot;&gt;ANDROID_JPEGR_AVAILABLE_JPEG_R_MIN_FRAME_DURATIONS_MAXIMUM_RESOLUTION&lt;/font&gt;" style="shape=partialRectangle;html=1;whiteSpace=wrap;connectable=0;strokeColor=#9673a6;overflow=hidden;fillColor=#e1d5e7;top=0;left=0;bottom=0;right=0;pointerEvents=1;fontFamily=Comic Sans MS;fontSize=8;" vertex="1" parent="0kJ84W1fS4hGcbfnPI8M-101">
          <mxGeometry width="300" height="40" as="geometry">
            <mxRectangle width="300" height="40" as="alternateBounds" />
          </mxGeometry>
        </mxCell>
        <mxCell id="0kJ84W1fS4hGcbfnPI8M-109" style="shape=tableRow;horizontal=0;startSize=0;swimlaneHead=0;swimlaneBody=0;strokeColor=inherit;top=0;left=0;bottom=0;right=0;collapsible=0;dropTarget=0;fillColor=none;points=[[0,0.5],[1,0.5]];portConstraint=eastwest;fontFamily=Comic Sans MS;" vertex="1" parent="0kJ84W1fS4hGcbfnPI8M-86">
          <mxGeometry y="480" width="300" height="40" as="geometry" />
        </mxCell>
        <mxCell id="0kJ84W1fS4hGcbfnPI8M-110" value="&lt;font style=&quot;font-size: 7px;&quot;&gt;ANDROID_JPEGR_AVAILABLE_JPEG_R_STALL_DURATIONS_MAXIMUM_RESOLUTION&lt;/font&gt;" style="shape=partialRectangle;html=1;whiteSpace=wrap;connectable=0;strokeColor=#9673a6;overflow=hidden;fillColor=#e1d5e7;top=0;left=0;bottom=0;right=0;pointerEvents=1;fontFamily=Comic Sans MS;fontSize=8;" vertex="1" parent="0kJ84W1fS4hGcbfnPI8M-109">
          <mxGeometry width="300" height="40" as="geometry">
            <mxRectangle width="300" height="40" as="alternateBounds" />
          </mxGeometry>
        </mxCell>
        <mxCell id="0kJ84W1fS4hGcbfnPI8M-111" style="shape=tableRow;horizontal=0;startSize=0;swimlaneHead=0;swimlaneBody=0;strokeColor=inherit;top=0;left=0;bottom=0;right=0;collapsible=0;dropTarget=0;fillColor=none;points=[[0,0.5],[1,0.5]];portConstraint=eastwest;fontFamily=Comic Sans MS;" vertex="1" parent="0kJ84W1fS4hGcbfnPI8M-86">
          <mxGeometry y="520" width="300" height="40" as="geometry" />
        </mxCell>
        <mxCell id="0kJ84W1fS4hGcbfnPI8M-112" value="&lt;font style=&quot;font-size: 12px;&quot;&gt;ANDROID_JPEGR_END&lt;/font&gt;" style="shape=partialRectangle;html=1;whiteSpace=wrap;connectable=0;strokeColor=#9673a6;overflow=hidden;fillColor=#e1d5e7;top=0;left=0;bottom=0;right=0;pointerEvents=1;fontFamily=Comic Sans MS;fontSize=8;" vertex="1" parent="0kJ84W1fS4hGcbfnPI8M-111">
          <mxGeometry width="300" height="40" as="geometry">
            <mxRectangle width="300" height="40" as="alternateBounds" />
          </mxGeometry>
        </mxCell>
        <mxCell id="0kJ84W1fS4hGcbfnPI8M-115" style="edgeStyle=orthogonalEdgeStyle;rounded=0;orthogonalLoop=1;jettySize=auto;html=1;exitX=0;exitY=0.5;exitDx=0;exitDy=0;entryX=1;entryY=0.5;entryDx=0;entryDy=0;" edge="1" parent="1" source="0kJ84W1fS4hGcbfnPI8M-71" target="0kJ84W1fS4hGcbfnPI8M-87">
          <mxGeometry relative="1" as="geometry" />
        </mxCell>
        <mxCell id="0kJ84W1fS4hGcbfnPI8M-116" style="edgeStyle=orthogonalEdgeStyle;rounded=0;orthogonalLoop=1;jettySize=auto;html=1;exitX=0;exitY=0.5;exitDx=0;exitDy=0;" edge="1" parent="1" source="0kJ84W1fS4hGcbfnPI8M-71" target="0kJ84W1fS4hGcbfnPI8M-113">
          <mxGeometry relative="1" as="geometry" />
        </mxCell>
        <mxCell id="0kJ84W1fS4hGcbfnPI8M-118" style="edgeStyle=orthogonalEdgeStyle;rounded=0;orthogonalLoop=1;jettySize=auto;html=1;exitX=0;exitY=0.5;exitDx=0;exitDy=0;entryX=1;entryY=0.5;entryDx=0;entryDy=0;" edge="1" parent="1" source="0kJ84W1fS4hGcbfnPI8M-79" target="0kJ84W1fS4hGcbfnPI8M-99">
          <mxGeometry relative="1" as="geometry" />
        </mxCell>
        <mxCell id="0kJ84W1fS4hGcbfnPI8M-119" style="edgeStyle=orthogonalEdgeStyle;rounded=0;orthogonalLoop=1;jettySize=auto;html=1;exitX=0;exitY=0.5;exitDx=0;exitDy=0;entryX=1;entryY=0.5;entryDx=0;entryDy=0;" edge="1" parent="1" source="0kJ84W1fS4hGcbfnPI8M-79" target="0kJ84W1fS4hGcbfnPI8M-111">
          <mxGeometry relative="1" as="geometry" />
        </mxCell>
        <mxCell id="0kJ84W1fS4hGcbfnPI8M-120" value="&lt;font face=&quot;Comic Sans MS&quot;&gt;&lt;span style=&quot;font-size: 16px;&quot;&gt;左移16位&lt;/span&gt;&lt;/font&gt;" style="rounded=1;whiteSpace=wrap;html=1;fillColor=none;strokeColor=none;" vertex="1" parent="1">
          <mxGeometry x="1230" y="410" width="70" height="60" as="geometry" />
        </mxCell>
        <mxCell id="0kJ84W1fS4hGcbfnPI8M-121" value="&lt;font face=&quot;Comic Sans MS&quot;&gt;&lt;span style=&quot;font-size: 16px;&quot;&gt;左移16位&lt;/span&gt;&lt;/font&gt;" style="rounded=1;whiteSpace=wrap;html=1;fillColor=none;strokeColor=none;" vertex="1" parent="1">
          <mxGeometry x="1230" y="570" width="70" height="60" as="geometry" />
        </mxCell>
        <mxCell id="0kJ84W1fS4hGcbfnPI8M-122" value="&lt;font style=&quot;font-size: 16px;&quot; face=&quot;Comic Sans MS&quot;&gt;struct&amp;nbsp;camera_metadata_entry&lt;/font&gt;" style="rounded=1;whiteSpace=wrap;html=1;fillColor=none;strokeColor=none;" vertex="1" parent="1">
          <mxGeometry x="570" y="900" width="440" height="60" as="geometry" />
        </mxCell>
        <mxCell id="0kJ84W1fS4hGcbfnPI8M-123" value="" style="shape=table;startSize=0;container=1;collapsible=0;childLayout=tableLayout;fontFamily=Comic Sans MS;" vertex="1" parent="1">
          <mxGeometry x="700" y="950" width="160" height="340" as="geometry" />
        </mxCell>
        <mxCell id="0kJ84W1fS4hGcbfnPI8M-124" value="" style="shape=tableRow;horizontal=0;startSize=0;swimlaneHead=0;swimlaneBody=0;strokeColor=inherit;top=0;left=0;bottom=0;right=0;collapsible=0;dropTarget=0;fillColor=none;points=[[0,0.5],[1,0.5]];portConstraint=eastwest;fontFamily=Comic Sans MS;" vertex="1" parent="0kJ84W1fS4hGcbfnPI8M-123">
          <mxGeometry width="160" height="31" as="geometry" />
        </mxCell>
        <mxCell id="0kJ84W1fS4hGcbfnPI8M-125" value="size_t" style="shape=partialRectangle;html=1;whiteSpace=wrap;connectable=0;strokeColor=#666666;overflow=hidden;fillColor=#f5f5f5;top=0;left=0;bottom=0;right=0;pointerEvents=1;fontFamily=Comic Sans MS;fontColor=#333333;" vertex="1" parent="0kJ84W1fS4hGcbfnPI8M-124">
          <mxGeometry width="80" height="31" as="geometry">
            <mxRectangle width="80" height="31" as="alternateBounds" />
          </mxGeometry>
        </mxCell>
        <mxCell id="0kJ84W1fS4hGcbfnPI8M-126" value="index" style="shape=partialRectangle;html=1;whiteSpace=wrap;connectable=0;strokeColor=#666666;overflow=hidden;fillColor=#f5f5f5;top=0;left=0;bottom=0;right=0;pointerEvents=1;fontFamily=Comic Sans MS;fontColor=#333333;" vertex="1" parent="0kJ84W1fS4hGcbfnPI8M-124">
          <mxGeometry x="80" width="80" height="31" as="geometry">
            <mxRectangle width="80" height="31" as="alternateBounds" />
          </mxGeometry>
        </mxCell>
        <mxCell id="0kJ84W1fS4hGcbfnPI8M-127" value="" style="shape=tableRow;horizontal=0;startSize=0;swimlaneHead=0;swimlaneBody=0;strokeColor=inherit;top=0;left=0;bottom=0;right=0;collapsible=0;dropTarget=0;fillColor=none;points=[[0,0.5],[1,0.5]];portConstraint=eastwest;fontFamily=Comic Sans MS;" vertex="1" parent="0kJ84W1fS4hGcbfnPI8M-123">
          <mxGeometry y="31" width="160" height="31" as="geometry" />
        </mxCell>
        <mxCell id="0kJ84W1fS4hGcbfnPI8M-128" value="uint32_t" style="shape=partialRectangle;html=1;whiteSpace=wrap;connectable=0;strokeColor=#6c8ebf;overflow=hidden;fillColor=#dae8fc;top=0;left=0;bottom=0;right=0;pointerEvents=1;fontFamily=Comic Sans MS;" vertex="1" parent="0kJ84W1fS4hGcbfnPI8M-127">
          <mxGeometry width="80" height="31" as="geometry">
            <mxRectangle width="80" height="31" as="alternateBounds" />
          </mxGeometry>
        </mxCell>
        <mxCell id="0kJ84W1fS4hGcbfnPI8M-129" value="tag" style="shape=partialRectangle;html=1;whiteSpace=wrap;connectable=0;strokeColor=#6c8ebf;overflow=hidden;fillColor=#dae8fc;top=0;left=0;bottom=0;right=0;pointerEvents=1;fontFamily=Comic Sans MS;" vertex="1" parent="0kJ84W1fS4hGcbfnPI8M-127">
          <mxGeometry x="80" width="80" height="31" as="geometry">
            <mxRectangle width="80" height="31" as="alternateBounds" />
          </mxGeometry>
        </mxCell>
        <mxCell id="0kJ84W1fS4hGcbfnPI8M-130" value="" style="shape=tableRow;horizontal=0;startSize=0;swimlaneHead=0;swimlaneBody=0;strokeColor=inherit;top=0;left=0;bottom=0;right=0;collapsible=0;dropTarget=0;fillColor=none;points=[[0,0.5],[1,0.5]];portConstraint=eastwest;fontFamily=Comic Sans MS;" vertex="1" parent="0kJ84W1fS4hGcbfnPI8M-123">
          <mxGeometry y="62" width="160" height="32" as="geometry" />
        </mxCell>
        <mxCell id="0kJ84W1fS4hGcbfnPI8M-131" value="uint8_t" style="shape=partialRectangle;html=1;whiteSpace=wrap;connectable=0;strokeColor=#82b366;overflow=hidden;fillColor=#d5e8d4;top=0;left=0;bottom=0;right=0;pointerEvents=1;fontFamily=Comic Sans MS;" vertex="1" parent="0kJ84W1fS4hGcbfnPI8M-130">
          <mxGeometry width="80" height="32" as="geometry">
            <mxRectangle width="80" height="32" as="alternateBounds" />
          </mxGeometry>
        </mxCell>
        <mxCell id="0kJ84W1fS4hGcbfnPI8M-132" value="type" style="shape=partialRectangle;html=1;whiteSpace=wrap;connectable=0;strokeColor=#82b366;overflow=hidden;fillColor=#d5e8d4;top=0;left=0;bottom=0;right=0;pointerEvents=1;fontFamily=Comic Sans MS;" vertex="1" parent="0kJ84W1fS4hGcbfnPI8M-130">
          <mxGeometry x="80" width="80" height="32" as="geometry">
            <mxRectangle width="80" height="32" as="alternateBounds" />
          </mxGeometry>
        </mxCell>
        <mxCell id="0kJ84W1fS4hGcbfnPI8M-133" value="" style="shape=tableRow;horizontal=0;startSize=0;swimlaneHead=0;swimlaneBody=0;strokeColor=inherit;top=0;left=0;bottom=0;right=0;collapsible=0;dropTarget=0;fillColor=none;points=[[0,0.5],[1,0.5]];portConstraint=eastwest;fontFamily=Comic Sans MS;" vertex="1" parent="0kJ84W1fS4hGcbfnPI8M-123">
          <mxGeometry y="94" width="160" height="30" as="geometry" />
        </mxCell>
        <mxCell id="0kJ84W1fS4hGcbfnPI8M-134" value="size_t" style="shape=partialRectangle;html=1;whiteSpace=wrap;connectable=0;strokeColor=#d79b00;overflow=hidden;fillColor=#ffe6cc;top=0;left=0;bottom=0;right=0;pointerEvents=1;fontFamily=Comic Sans MS;" vertex="1" parent="0kJ84W1fS4hGcbfnPI8M-133">
          <mxGeometry width="80" height="30" as="geometry">
            <mxRectangle width="80" height="30" as="alternateBounds" />
          </mxGeometry>
        </mxCell>
        <mxCell id="0kJ84W1fS4hGcbfnPI8M-135" value="count" style="shape=partialRectangle;html=1;whiteSpace=wrap;connectable=0;strokeColor=#d79b00;overflow=hidden;fillColor=#ffe6cc;top=0;left=0;bottom=0;right=0;pointerEvents=1;fontFamily=Comic Sans MS;" vertex="1" parent="0kJ84W1fS4hGcbfnPI8M-133">
          <mxGeometry x="80" width="80" height="30" as="geometry">
            <mxRectangle width="80" height="30" as="alternateBounds" />
          </mxGeometry>
        </mxCell>
        <mxCell id="0kJ84W1fS4hGcbfnPI8M-136" value="" style="shape=tableRow;horizontal=0;startSize=0;swimlaneHead=0;swimlaneBody=0;strokeColor=inherit;top=0;left=0;bottom=0;right=0;collapsible=0;dropTarget=0;fillColor=none;points=[[0,0.5],[1,0.5]];portConstraint=eastwest;fontFamily=Comic Sans MS;" vertex="1" parent="0kJ84W1fS4hGcbfnPI8M-123">
          <mxGeometry y="124" width="160" height="31" as="geometry" />
        </mxCell>
        <mxCell id="0kJ84W1fS4hGcbfnPI8M-137" value="union" style="shape=partialRectangle;html=1;whiteSpace=wrap;connectable=0;strokeColor=#9673a6;overflow=hidden;fillColor=#e1d5e7;top=0;left=0;bottom=0;right=0;pointerEvents=1;fontFamily=Comic Sans MS;" vertex="1" parent="0kJ84W1fS4hGcbfnPI8M-136">
          <mxGeometry width="80" height="31" as="geometry">
            <mxRectangle width="80" height="31" as="alternateBounds" />
          </mxGeometry>
        </mxCell>
        <mxCell id="0kJ84W1fS4hGcbfnPI8M-138" value="data" style="shape=partialRectangle;html=1;whiteSpace=wrap;connectable=0;strokeColor=#9673a6;overflow=hidden;fillColor=#e1d5e7;top=0;left=0;bottom=0;right=0;pointerEvents=1;fontFamily=Comic Sans MS;" vertex="1" parent="0kJ84W1fS4hGcbfnPI8M-136">
          <mxGeometry x="80" width="80" height="31" as="geometry">
            <mxRectangle width="80" height="31" as="alternateBounds" />
          </mxGeometry>
        </mxCell>
        <mxCell id="0kJ84W1fS4hGcbfnPI8M-139" value="" style="shape=tableRow;horizontal=0;startSize=0;swimlaneHead=0;swimlaneBody=0;strokeColor=inherit;top=0;left=0;bottom=0;right=0;collapsible=0;dropTarget=0;fillColor=none;points=[[0,0.5],[1,0.5]];portConstraint=eastwest;fontFamily=Comic Sans MS;" vertex="1" parent="0kJ84W1fS4hGcbfnPI8M-123">
          <mxGeometry y="155" width="160" height="30" as="geometry" />
        </mxCell>
        <mxCell id="0kJ84W1fS4hGcbfnPI8M-140" value="uint8_t*" style="shape=partialRectangle;html=1;whiteSpace=wrap;connectable=0;strokeColor=#9673a6;overflow=hidden;fillColor=#e1d5e7;top=0;left=0;bottom=0;right=0;pointerEvents=1;fontFamily=Comic Sans MS;" vertex="1" parent="0kJ84W1fS4hGcbfnPI8M-139">
          <mxGeometry width="80" height="30" as="geometry">
            <mxRectangle width="80" height="30" as="alternateBounds" />
          </mxGeometry>
        </mxCell>
        <mxCell id="0kJ84W1fS4hGcbfnPI8M-141" value="data.u8" style="shape=partialRectangle;html=1;whiteSpace=wrap;connectable=0;strokeColor=#9673a6;overflow=hidden;fillColor=#e1d5e7;top=0;left=0;bottom=0;right=0;pointerEvents=1;fontFamily=Comic Sans MS;" vertex="1" parent="0kJ84W1fS4hGcbfnPI8M-139">
          <mxGeometry x="80" width="80" height="30" as="geometry">
            <mxRectangle width="80" height="30" as="alternateBounds" />
          </mxGeometry>
        </mxCell>
        <mxCell id="0kJ84W1fS4hGcbfnPI8M-142" value="" style="shape=tableRow;horizontal=0;startSize=0;swimlaneHead=0;swimlaneBody=0;strokeColor=inherit;top=0;left=0;bottom=0;right=0;collapsible=0;dropTarget=0;fillColor=none;points=[[0,0.5],[1,0.5]];portConstraint=eastwest;fontFamily=Comic Sans MS;" vertex="1" parent="0kJ84W1fS4hGcbfnPI8M-123">
          <mxGeometry y="185" width="160" height="31" as="geometry" />
        </mxCell>
        <mxCell id="0kJ84W1fS4hGcbfnPI8M-143" value="int32_t*" style="shape=partialRectangle;html=1;whiteSpace=wrap;connectable=0;strokeColor=#9673a6;overflow=hidden;fillColor=#e1d5e7;top=0;left=0;bottom=0;right=0;pointerEvents=1;fontFamily=Comic Sans MS;" vertex="1" parent="0kJ84W1fS4hGcbfnPI8M-142">
          <mxGeometry width="80" height="31" as="geometry">
            <mxRectangle width="80" height="31" as="alternateBounds" />
          </mxGeometry>
        </mxCell>
        <mxCell id="0kJ84W1fS4hGcbfnPI8M-144" value="data.i32" style="shape=partialRectangle;html=1;whiteSpace=wrap;connectable=0;strokeColor=#9673a6;overflow=hidden;fillColor=#e1d5e7;top=0;left=0;bottom=0;right=0;pointerEvents=1;fontFamily=Comic Sans MS;" vertex="1" parent="0kJ84W1fS4hGcbfnPI8M-142">
          <mxGeometry x="80" width="80" height="31" as="geometry">
            <mxRectangle width="80" height="31" as="alternateBounds" />
          </mxGeometry>
        </mxCell>
        <mxCell id="0kJ84W1fS4hGcbfnPI8M-145" value="" style="shape=tableRow;horizontal=0;startSize=0;swimlaneHead=0;swimlaneBody=0;strokeColor=inherit;top=0;left=0;bottom=0;right=0;collapsible=0;dropTarget=0;fillColor=none;points=[[0,0.5],[1,0.5]];portConstraint=eastwest;fontFamily=Comic Sans MS;" vertex="1" parent="0kJ84W1fS4hGcbfnPI8M-123">
          <mxGeometry y="216" width="160" height="31" as="geometry" />
        </mxCell>
        <mxCell id="0kJ84W1fS4hGcbfnPI8M-146" value="float*" style="shape=partialRectangle;html=1;whiteSpace=wrap;connectable=0;strokeColor=#9673a6;overflow=hidden;fillColor=#e1d5e7;top=0;left=0;bottom=0;right=0;pointerEvents=1;fontFamily=Comic Sans MS;" vertex="1" parent="0kJ84W1fS4hGcbfnPI8M-145">
          <mxGeometry width="80" height="31" as="geometry">
            <mxRectangle width="80" height="31" as="alternateBounds" />
          </mxGeometry>
        </mxCell>
        <mxCell id="0kJ84W1fS4hGcbfnPI8M-147" value="data.f" style="shape=partialRectangle;html=1;whiteSpace=wrap;connectable=0;strokeColor=#9673a6;overflow=hidden;fillColor=#e1d5e7;top=0;left=0;bottom=0;right=0;pointerEvents=1;fontFamily=Comic Sans MS;" vertex="1" parent="0kJ84W1fS4hGcbfnPI8M-145">
          <mxGeometry x="80" width="80" height="31" as="geometry">
            <mxRectangle width="80" height="31" as="alternateBounds" />
          </mxGeometry>
        </mxCell>
        <mxCell id="0kJ84W1fS4hGcbfnPI8M-148" value="" style="shape=tableRow;horizontal=0;startSize=0;swimlaneHead=0;swimlaneBody=0;strokeColor=inherit;top=0;left=0;bottom=0;right=0;collapsible=0;dropTarget=0;fillColor=none;points=[[0,0.5],[1,0.5]];portConstraint=eastwest;fontFamily=Comic Sans MS;" vertex="1" parent="0kJ84W1fS4hGcbfnPI8M-123">
          <mxGeometry y="247" width="160" height="31" as="geometry" />
        </mxCell>
        <mxCell id="0kJ84W1fS4hGcbfnPI8M-149" value="int64_t*" style="shape=partialRectangle;html=1;whiteSpace=wrap;connectable=0;strokeColor=#9673a6;overflow=hidden;fillColor=#e1d5e7;top=0;left=0;bottom=0;right=0;pointerEvents=1;fontFamily=Comic Sans MS;" vertex="1" parent="0kJ84W1fS4hGcbfnPI8M-148">
          <mxGeometry width="80" height="31" as="geometry">
            <mxRectangle width="80" height="31" as="alternateBounds" />
          </mxGeometry>
        </mxCell>
        <mxCell id="0kJ84W1fS4hGcbfnPI8M-150" value="data.i64" style="shape=partialRectangle;html=1;whiteSpace=wrap;connectable=0;strokeColor=#9673a6;overflow=hidden;fillColor=#e1d5e7;top=0;left=0;bottom=0;right=0;pointerEvents=1;fontFamily=Comic Sans MS;" vertex="1" parent="0kJ84W1fS4hGcbfnPI8M-148">
          <mxGeometry x="80" width="80" height="31" as="geometry">
            <mxRectangle width="80" height="31" as="alternateBounds" />
          </mxGeometry>
        </mxCell>
        <mxCell id="0kJ84W1fS4hGcbfnPI8M-151" value="" style="shape=tableRow;horizontal=0;startSize=0;swimlaneHead=0;swimlaneBody=0;strokeColor=inherit;top=0;left=0;bottom=0;right=0;collapsible=0;dropTarget=0;fillColor=none;points=[[0,0.5],[1,0.5]];portConstraint=eastwest;fontFamily=Comic Sans MS;" vertex="1" parent="0kJ84W1fS4hGcbfnPI8M-123">
          <mxGeometry y="278" width="160" height="31" as="geometry" />
        </mxCell>
        <mxCell id="0kJ84W1fS4hGcbfnPI8M-152" value="double*" style="shape=partialRectangle;html=1;whiteSpace=wrap;connectable=0;strokeColor=#9673a6;overflow=hidden;fillColor=#e1d5e7;top=0;left=0;bottom=0;right=0;pointerEvents=1;fontFamily=Comic Sans MS;" vertex="1" parent="0kJ84W1fS4hGcbfnPI8M-151">
          <mxGeometry width="80" height="31" as="geometry">
            <mxRectangle width="80" height="31" as="alternateBounds" />
          </mxGeometry>
        </mxCell>
        <mxCell id="0kJ84W1fS4hGcbfnPI8M-153" value="data.d" style="shape=partialRectangle;html=1;whiteSpace=wrap;connectable=0;strokeColor=#9673a6;overflow=hidden;fillColor=#e1d5e7;top=0;left=0;bottom=0;right=0;pointerEvents=1;fontFamily=Comic Sans MS;" vertex="1" parent="0kJ84W1fS4hGcbfnPI8M-151">
          <mxGeometry x="80" width="80" height="31" as="geometry">
            <mxRectangle width="80" height="31" as="alternateBounds" />
          </mxGeometry>
        </mxCell>
        <mxCell id="0kJ84W1fS4hGcbfnPI8M-154" style="shape=tableRow;horizontal=0;startSize=0;swimlaneHead=0;swimlaneBody=0;strokeColor=inherit;top=0;left=0;bottom=0;right=0;collapsible=0;dropTarget=0;fillColor=none;points=[[0,0.5],[1,0.5]];portConstraint=eastwest;fontFamily=Comic Sans MS;" vertex="1" parent="0kJ84W1fS4hGcbfnPI8M-123">
          <mxGeometry y="309" width="160" height="31" as="geometry" />
        </mxCell>
        <mxCell id="0kJ84W1fS4hGcbfnPI8M-155" value="&lt;font style=&quot;font-size: 9px;&quot;&gt;camera_metadata&lt;br&gt;_tational*&lt;/font&gt;" style="shape=partialRectangle;html=1;whiteSpace=wrap;connectable=0;strokeColor=#9673a6;overflow=hidden;fillColor=#e1d5e7;top=0;left=0;bottom=0;right=0;pointerEvents=1;fontFamily=Comic Sans MS;" vertex="1" parent="0kJ84W1fS4hGcbfnPI8M-154">
          <mxGeometry width="80" height="31" as="geometry">
            <mxRectangle width="80" height="31" as="alternateBounds" />
          </mxGeometry>
        </mxCell>
        <mxCell id="0kJ84W1fS4hGcbfnPI8M-156" value="data.r" style="shape=partialRectangle;html=1;whiteSpace=wrap;connectable=0;strokeColor=#9673a6;overflow=hidden;fillColor=#e1d5e7;top=0;left=0;bottom=0;right=0;pointerEvents=1;fontFamily=Comic Sans MS;" vertex="1" parent="0kJ84W1fS4hGcbfnPI8M-154">
          <mxGeometry x="80" width="80" height="31" as="geometry">
            <mxRectangle width="80" height="31" as="alternateBounds" />
          </mxGeometry>
        </mxCell>
      </root>
    </mxGraphModel>
  </diagram>
</mxfile>
